{"title":"Rise Of The Apes 2011 TS  XViD DTRG","uid":6587517,"size":1372785793,"categoryP":"video","categoryS":"movies","magnet":"?xt=urn:btih:1ab956cb709de0b72c34d2c8d90f893f6351b14b&amp;dn=Rise+Of+The+Apes+2011+TS++XViD+DTRG&amp;tr=udp%3A%2F%2Ftracker.openbittorrent.com%3A80&amp;tr=udp%3A%2F%2Fopen.demonii.com%3A1337&amp;tr=udp%3A%2F%2Ftracker.coppersurfer.tk%3A6969&amp;tr=udp%3A%2F%2Fexodus.desync.com%3A6969","seeders":2,"leechers":0,"uploader":"SAFCukO09","files":3,"time":1312671240,"description":"Format : AVI\nFormat/Info : Audio Video Interleave\nFile size : 1.28 GiB\nDuration : 1h 37mn\nOverall bit rate : 1 868 Kbps\nWriting library : VirtualDub build 32842/release\n\nVideo\nID : 0\nFormat : MPEG-4 Visual\nFormat profile : Advanced Simple@L5\nFormat settings, BVOP : 2\nFormat settings, QPel : No\nFormat settings, GMC : No warppoints\nFormat settings, Matrix : Default (H.263)\nMuxing mode : Packed bitstream\nCodec ID : XVID\nCodec ID/Hint : XviD\nDuration : 1h 37mn\nBit rate : 1 731 Kbps\nWidth : 720 pixels\nHeight : 320 pixels\nDisplay aspect ratio : 2.25:1\nFrame rate : 25.000 fps\nColor space : YUV\nChroma subsampling : 4:2:0\nBit depth : 8 bits\nScan type : Progressive\nCompression mode : Lossy\nBits/(Pixel*Frame) : 0.300\nStream size : 1.18 GiB (93%)\nWriting library : XviD 64\n\nAudio\nID : 1\nFormat : MPEG Audio\nFormat version : Version 1\nFormat profile : Layer 3\nMode : Joint stereo\nMode extension : MS Stereo\nCodec ID : 55\nCodec ID/Hint : MP3\nDuration : 1h 37mn\nBit rate mode : Constant\nBit rate : 128 Kbps\nChannel(s) : 2 channels\nSampling rate : 44.1 KHz\nCompression mode : Lossy\nStream size : 89.7 MiB (7%)\nAlignment : Split accross interleaves\nInterleave, duration : 40 ms (1.00 video frame)\nInterleave, preload duration : 500 ms\nWriting library : LAME3.98r\nEncoding settings : -m j -V 4 -q 2 -lowpass 17 -b 128\n\n\n\n\n\n &lt;a href=&quot;\nhttp://www.imdb.com/title/tt1318514/&quot; rel=&quot;nofollow&quot; target=&quot;_NEW&quot;&gt;\nhttp://www.imdb.com/title/tt1318514/&lt;/a&gt;\n\n\n\n\n\n\n\n\n\nUsers: (1,143 votes) 55 reviews | Critics: 31 reviews Metascore: 69/100 (based on 35 reviews from Metacritic.com)\n\n\nAn origin story set in present day San Francisco, where man's own experiments with genetic engineering lead to the development of intelligence in apes and the onset of a war for supremacy.\n\nDirector: Rupert Wyatt\nWriters: Pierre Boulle (suggested by novel &quot;La planete des singes&quot;), Rick Jaffa, and 1 more credit Ã‚Â»\nStars: James Franco, Andy Serkis and Freida Pinto\n\n\n\n\n\n\n\n\n\n\n\n\n\n\n\n\n\n\n\n\nSource Used\n\n\n\nVIDEO: .............. Vosstanie.obeziyan.2011.CAMRip.PROPER......... Thanks\n\nAUDIO: .............. IMAGiNE .............................................Thanks\n\n\n\nEnjoy\n\n\n\n\n\nGreetz to IMAGiNE,Flawl3ss,DiLLoN,BDK,NOiR,TOXiC,THC,Ez,Rx,Boobyblue,TaRiQ786,BHRG","torrent":{"xt":"urn:btih:1ab956cb709de0b72c34d2c8d90f893f6351b14b","amp;dn":"Rise+Of+The+Apes+2011+TS++XViD+DTRG","amp;tr":["udp%3A%2F%2Ftracker.openbittorrent.com%3A80","udp%3A%2F%2Fopen.demonii.com%3A1337","udp%3A%2F%2Ftracker.coppersurfer.tk%3A6969","udp%3A%2F%2Fexodus.desync.com%3A6969"],"infoHash":"1ab956cb709de0b72c34d2c8d90f893f6351b14b","infoHashBuffer":{"type":"Buffer","data":[26,185,86,203,112,157,224,183,44,52,210,200,217,15,137,63,99,81,177,75]},"announce":[],"urlList":[]}}